<?xml version="1.0" encoding="UTF-8"?>
<svg id="Layer_2" data-name="Layer 2" xmlns="http://www.w3.org/2000/svg" viewBox="0 0 37.54 25.1">
  <g id="Publications.Header">
    <g>
      <path d="M2.88,3.92c10.7-.63,21.41-.93,32.13-.92,1.93,0,1.93-3,0-3C24.29-.02,13.58.29,2.88.92c-1.92.11-1.93,3.11,0,3Z"/>
      <path d="M36.09,11.38c-11.54.81-23.11.82-34.65.03-1.93-.13-1.92,2.87,0,3,11.54.79,23.12.78,34.65-.03,1.92-.13,1.93-3.14,0-3Z"/>
      <path d="M35.13,22.09c-11.16-1.12-22.39-1.3-33.58-.56-1.92.13-1.93,3.13,0,3,11.19-.74,22.42-.55,33.58.56,1.92.19,1.91-2.81,0-3Z"/>
    </g>
  </g>
</svg>