<?xml version="1.0" encoding="UTF-8"?>
<svg id="Layer_2" data-name="Layer 2" xmlns="http://www.w3.org/2000/svg" viewBox="0 0 25.31 32.78">
  <g id="Updates">
    <path d="M.64,2.88l20.59,15.54.59.44c.48.54.66.34.55-.6-.07-.06-1.22.67-1.29.72-.94.52-1.87,1.04-2.81,1.55-1.87,1.04-3.74,2.07-5.61,3.11-3.81,2.11-7.62,4.23-11.44,6.34-1.69.94-.18,3.53,1.51,2.59,4.32-2.39,8.63-4.78,12.95-7.18,2.16-1.2,4.32-2.39,6.47-3.59,1.44-.8,4.04-1.92,2.85-4.02-.51-.9-1.65-1.49-2.46-2.11l-2.75-2.07-5.88-4.44C10,6.21,6.07,3.25,2.15.29.61-.87-.89,1.73.64,2.88h0Z"/>
  </g>
</svg>