<?xml version="1.0" encoding="UTF-8"?>
<svg id="Layer_2" data-name="Layer 2" xmlns="http://www.w3.org/2000/svg" viewBox="0 0 21.84 28.64">
  <g id="Updates">
    <path d="M18.55.25L7.45,7.57c-1.83,1.21-3.7,2.37-5.5,3.63-1.42,1-2.49,2.47-1.67,4.24.71,1.54,2.48,2.59,3.78,3.59,1.64,1.26,3.32,2.47,5.05,3.61,3.33,2.2,6.83,4.14,10.44,5.84,1.74.82,3.26-1.77,1.51-2.59-6.12-2.88-12.12-6.46-17.26-10.88-.58-.5-1.05-.69-.34-1.22s1.48-.98,2.21-1.46l4.93-3.25,9.46-6.24c1.6-1.06.1-3.66-1.51-2.59h0Z"/>
  </g>
</svg>