<?xml version="1.0" encoding="UTF-8"?>
<svg id="Layer_2" data-name="Layer 2" xmlns="http://www.w3.org/2000/svg" viewBox="0 0 53.9 54.2">
  <g id="Updates">
    <g>
      <path d="M39.11,14.55c-6.03,7.73-10.84,16.28-14.3,25.43-2.95-7.27-5.07-14.86-6.36-22.6-.32-1.9-3.21-1.09-2.89.8,1.54,9.21,4.27,18.14,8.09,26.66.57,1.27,2.37.75,2.74-.36,3.33-10.03,8.35-19.48,14.85-27.82,1.17-1.51-.94-3.64-2.12-2.12Z"/>
      <path d="M49.22,11.6c.25-.51.25-1.15-.24-1.68-3.73-4.1-8.78-6.58-14.09-7.97-2.8-.73-5.66-1.17-8.54-1.47-2.91-.31-5.94-.62-8.87-.41C11.16.5,6.85,5.24,3.95,10.5,1.14,15.63-.29,21.58.05,27.43c.63,11.01,7.69,20.88,17.94,24.99,9.94,3.99,22.02,1.07,29.08-7,4.52-5.17,6.34-11.94,6.75-18.68.33-5.33-.32-11.55-4.61-15.15ZM50.88,25.67c-.22,5.57-1.4,11.3-4.62,15.96-5.33,7.71-15.78,11.28-24.75,8.82-9.21-2.52-16.35-10.56-18.09-19.9-.95-5.12-.28-10.48,1.6-15.31,1.75-4.5,5.16-10.27,10.08-11.76,2.89-.88,6.18-.44,9.14-.2,2.81.22,5.61.58,8.36,1.2,5.04,1.13,9.85,3.17,13.53,6.84-.36.65-.33,1.54.47,2.06,3.97,2.56,4.44,8.01,4.27,12.29Z"/>
    </g>
  </g>
</svg>