<?xml version="1.0" encoding="UTF-8"?>
<svg id="Layer_2" data-name="Layer 2" xmlns="http://www.w3.org/2000/svg" viewBox="0 0 55.06 58.97">
  <g id="Updates">
    <g>
      <path d="M36.16,16.19c-1.71,4.64-2.67,9.49-3.68,14.32-.5,2.38-1.01,4.75-1.65,7.1-.31,1.13-.64,2.25-1.02,3.37-.19.57-.4,1.13-.61,1.69-.17-.3-.33-.6-.49-.89l-1.44-2.61c-1.04-1.89-2.09-3.77-3.13-5.66-2.09-3.77-4.17-7.54-6.26-11.31-.93-1.69-3.53-.18-2.59,1.51,2.05,3.7,4.09,7.4,6.14,11.09,1.04,1.89,2.09,3.77,3.13,5.66,1.02,1.84,1.93,3.83,3.1,5.57.94,1.41,2.67,1.21,3.47-.21.9-1.6,1.45-3.55,1.99-5.3,1.12-3.59,1.86-7.27,2.63-10.94.89-4.25,1.82-8.5,3.32-12.59.67-1.81-2.23-2.6-2.89-.8Z"/>
      <path d="M55.02,27.89c-.43-6.53-3.6-12.39-6.93-17.9.64-.61.83-1.83-.13-2.5-5.02-3.55-10.87-5.95-16.95-6.91-5.62-.88-12.27-1.06-17.48,1.55-2.66,1.33-4.58,3.62-6.07,6.14-1.61,2.73-2.95,5.65-4.16,8.57C.94,22.56-.59,28.77.21,34.96c1.36,10.54,8.96,20.12,19.31,23.03,10.67,3,22.25-1.1,28.67-10.08,2.05-2.86,3.62-6.06,4.9-9.33,1.33-3.39,2.16-7.04,1.92-10.7ZM48.06,42.42c-2.45,4.6-5.79,8.55-10.48,10.95-4.2,2.15-9.05,2.96-13.72,2.44-9.58-1.08-17.37-8.56-19.95-17.68-1.5-5.31-.96-10.8.66-16.02.88-2.83,2.05-5.56,3.34-8.22,1.18-2.43,2.38-5.02,4.24-7,4.13-4.39,11.69-4.23,17.21-3.52,5.37.69,10.53,2.57,15.12,5.42-.15.37-.15.8.12,1.25,2.97,4.85,6.03,9.87,7.11,15.52,1.14,5.91-.9,11.7-3.66,16.87Z"/>
    </g>
  </g>
</svg>