<?xml version="1.0" encoding="UTF-8"?>
<svg id="Layer_2" data-name="Layer 2" xmlns="http://www.w3.org/2000/svg" viewBox="0 0 50.73 52.25">
  <g id="Updates">
    <g>
      <path d="M31.75,14.75c-1.95,6.1-3.89,12.21-5.84,18.31-2.01-5.1-4.14-10.16-6.81-14.96-.94-1.69-3.53-.18-2.59,1.51,3.26,5.85,5.69,12.09,8.1,18.32.52,1.35,2.42,1.49,2.89,0,2.38-7.47,4.76-14.93,7.14-22.4.59-1.84-2.31-2.63-2.89-.8Z"/>
      <path d="M47.42,14.84c.31-.42.42-.98.11-1.57-2.45-4.76-7.18-7.58-11.81-9.88-2.61-1.3-5.31-2.74-8.21-3.22-2.94-.49-5.75.15-8.4,1.47-4.86,2.42-9.21,6.45-12.51,10.71C3.3,16.62.92,21.62.2,27.01c-1.24,9.36,3.36,19.9,12.38,23.66,5.8,2.42,12.26,1.65,18.26.47,4.84-.96,9.94-2.17,13.86-5.35,4.9-3.97,5.48-10.65,5.92-16.53.37-5.01-.08-10.38-3.2-14.42ZM47.71,27.77c-.09,2.25-.37,4.49-.7,6.71-.38,2.55-.87,5.17-2.48,7.26-2.65,3.43-7.19,4.85-11.24,5.81-5.06,1.21-10.57,2.32-15.77,1.43-9.02-1.54-14.51-10.09-14.53-18.88-.02-9.42,6.22-17.87,13.51-23.27,2.36-1.75,5.05-3.52,8.05-3.83,2.95-.3,5.73,1.05,8.31,2.31,4.19,2.03,8.7,4.26,11.34,8.22-.55.53-.75,1.41-.05,2.1,3.22,3.19,3.74,7.81,3.56,12.13Z"/>
    </g>
  </g>
</svg>