<?xml version="1.0" encoding="UTF-8"?>
<svg id="Layer_2" data-name="Layer 2" xmlns="http://www.w3.org/2000/svg" viewBox="0 0 52.96 58.69">
  <g id="Updates">
    <g>
      <path d="M32.43,16.25c-1.66,7.28-3.72,14.45-6.14,21.5-2.89-7.15-6-14.23-10.4-20.6-1.09-1.58-3.69-.08-2.59,1.51,5.04,7.31,8.38,15.54,11.65,23.75.55,1.38,2.36,1.45,2.89,0,3.02-8.29,5.52-16.77,7.48-25.37.43-1.88-2.46-2.68-2.89-.8Z"/>
      <path d="M51.22,16.46c-.18-.52-.55-.81-.96-.95-.02-.1-.04-.21-.08-.31C46.45,5.32,35.72-1.01,25.26.13,14.2,1.34,4.89,9.67,1.53,20.13c-1.89,5.87-1.96,12.27-.58,18.26,1.28,5.54,3.83,11.24,7.94,15.26,8.76,8.57,23.27,4.98,31.99-1.8,10.58-8.22,14.75-22.76,10.33-35.4ZM42.17,46.69c-3.44,3.58-7.78,6.28-12.53,7.73-5.03,1.54-11.1,2.08-15.8-.7-4.37-2.58-7.13-7.42-8.8-12.07-1.85-5.16-2.55-10.81-1.69-16.24C4.92,15.5,11.91,6.68,21.72,3.86c9.98-2.87,21.8,2.17,25.56,12.14.19.5.55.79.96.93.01.11.04.22.08.33,3.51,10.06,1.28,21.69-6.15,29.43Z"/>
    </g>
  </g>
</svg>