<?xml version="1.0" encoding="UTF-8"?>
<svg id="Layer_2" data-name="Layer 2" xmlns="http://www.w3.org/2000/svg" viewBox="0 0 48.08 48.09">
  <g id="Footer">
    <g>
      <path d="M47.92,13.38c-.46-7.05-6.19-12.77-13.23-13.23-7.03-.46-14.59.32-21.68.05C6.13.81.6,6.46.14,13.38c-.46,6.92.36,14.34,0,21.32.48,6.59,5.47,12.14,12.04,13.07,7.3-.08,15.25.64,22.51.16,6.57-.43,12.15-5.52,13.07-12.04-.08-7.3.64-15.25.16-22.51ZM43.58,34.56c-.38,4.7-4.17,8.63-8.9,9.02-6.79.56-14.31-.42-21.17,0-4.78-.41-8.54-4.12-9.02-8.9.34-6.88-.46-14.21,0-21.04.31-4.67,3.98-8.64,8.66-9.11,6.85-.69,14.7.42,21.65-.02,4.59.49,8.39,4.24,8.77,8.87.56,6.79-.42,14.31,0,21.17Z"/>
      <path d="M22.78,11.05c-9.32.91-14.67,11.15-10.08,19.37,4.89,8.78,17.67,8.83,22.62.09,5.2-9.19-2.09-20.47-12.54-19.46ZM24.78,32.72c-11.44.88-12.76-16.2-1.72-17.33,11.77-1.2,13.04,16.46,1.72,17.33Z"/>
      <path d="M36.48,9.28c-2.36.37-2.01,4.17.63,3.89,2.52-.27,2.16-4.34-.63-3.89Z"/>
    </g>
  </g>
</svg>