<?xml version="1.0" encoding="UTF-8"?>
<svg id="Layer_2" data-name="Layer 2" xmlns="http://www.w3.org/2000/svg" viewBox="0 0 48.08 39.82">
  <g id="Footer">
    <path d="M23.53,8c.88-5.63,7.46-9.13,12.76-7.66,2.03.56,3.21,1.9,4.94,2.71,2.06-.37,4.05-1.18,5.82-2.28l-1.3,2.81-2.67,2.57c1.57.17,3.02-.75,4.45-1.08,1.56-.35-.66,1.95-1.04,2.36-.86.91-1.87,1.49-2.69,2.41-.09,14.75-9.7,27.71-24.7,29.72-6.48.87-13.75-.43-19.1-4.22h4.68c.98,0,3.83-.95,4.87-1.37,1.51-.6,3.56-1.65,4.63-2.88-4.23-.1-7.6-3.01-9.07-6.8.47-.35,3.53.61,3.97-.57-4.66-.97-7.26-5.1-7.65-9.64l4.53,1.13-2.33-2.34C1.17,9.48,1.11,5.64,2.84,1.9c5.49,6.01,12.4,9.94,20.69,10.49.15-1.36-.2-3.09,0-4.39Z"/>
  </g>
</svg>