<?xml version="1.0" encoding="UTF-8"?>
<svg id="Layer_2" data-name="Layer 2" xmlns="http://www.w3.org/2000/svg" viewBox="0 0 225.52 21.05">
  <g id="Updates">
    <path d="M1.44,20.76c9.71.89,19.61-.27,28.83-3.44,7.17-2.47,15.89-6.43,17.02-14.89.08-.62-.52-1.32-1.1-1.45-4.62-1.03-8.62,3.44-7.98,7.92.69,4.83,5.33,7.84,9.82,8.57,2.7.44,5.42.36,8.14.22,2.9-.15,5.8-.39,8.68-.77,5.57-.73,11.09-1.91,16.37-3.84,4.25-1.56,11.86-4.43,10.3-10.35-.12-.46-.55-.96-1.05-1.05-4.87-.82-7.57,5.18-5.54,9.11,2.62,5.07,9.87,5.27,14.77,5.52,7.13.37,14.26-.1,21.33-1.07,3.6-.49,7.17-1.11,10.73-1.83,3.13-.63,6.3-1.25,9.34-2.27,2.83-.94,6.37-2.34,8.13-4.9,1.41-2.05,1.67-5.29-1.15-6.21-.52-.17-1.07.04-1.46.39-3.57,3.22-1.74,8.89,1.78,11.31,2.11,1.45,4.67,1.98,7.16,2.29,2.96.37,5.96.53,8.94.7,12.78.73,25.61.5,38.35-.69,7.23-.68,14.43-1.66,21.58-2.94,1.9-.34,1.09-3.23-.8-2.89-11.43,2.04-23,3.29-34.61,3.74-5.75.22-11.5.25-17.25.09s-11.16-.25-16.61-1.07c-2.33-.35-5.05-1.02-6.5-3.05-1.14-1.59-1.5-3.96.07-5.38l-1.46.39c.08.02.1,0,.02.22-.11.31-.14.63-.28.94-.46.99-1.39,1.58-2.28,2.13-1.98,1.23-4.17,2.01-6.4,2.62-5.21,1.43-10.61,2.39-15.95,3.2s-11.25,1.35-16.91,1.39c-2.89.02-5.79-.08-8.67-.32-2.06-.17-4.2-.4-6.13-1.21-1.81-.75-3.56-2.17-3.44-4.3.07-1.21.87-3.3,2.43-3.04l-1.05-1.05c.45,1.73-1.1,3.12-2.4,3.99-1.7,1.14-3.68,1.88-5.59,2.59-4.21,1.56-8.59,2.65-13.01,3.4s-8.82,1.11-13.26,1.27c-3.96.14-8.49.06-11.44-2.98-1.28-1.31-2.21-3.26-1.61-5.1.55-1.68,2.23-3.24,4.09-2.82l-1.1-1.45c-.45,3.38-3.04,5.99-5.76,7.79-3.29,2.18-7.06,3.6-10.8,4.77-8.5,2.67-17.43,3.58-26.29,2.76-1.92-.18-1.91,2.82,0,3h0Z"/>
  </g>
</svg>