<?xml version="1.0" encoding="UTF-8"?>
<svg id="Layer_2" data-name="Layer 2" xmlns="http://www.w3.org/2000/svg" viewBox="0 0 21.16 528.98">
  <g id="Publications.Sidebar">
    <path d="M17.36,1.45c.42,17.09.67,34.19.76,51.28.09,17.18.02,34.35-.18,51.53-.2,17.09-.53,34.18-.97,51.27s-.99,34.18-1.61,51.26c-.63,17.17-1.35,34.34-2.12,51.51s-1.59,34.17-2.45,51.26c-.86,17.09-1.75,34.17-2.64,51.26-.9,17.17-1.81,34.34-2.7,51.51s-1.76,34.17-2.58,51.26c-.83,17.08-1.61,34.17-2.33,51.26-.18,4.23-.35,8.46-.52,12.69-.08,1.93,2.92,1.93,3,0,.68-17.09,1.44-34.18,2.24-51.26s1.67-34.34,2.55-51.51,1.78-34.17,2.68-51.26c.9-17.08,1.8-34.17,2.67-51.26s1.73-34.34,2.52-51.51,1.54-34.17,2.21-51.26,1.26-34.17,1.75-51.26c.49-17.17.89-34.34,1.15-51.52s.4-34.18.39-51.27c-.01-17.1-.18-34.19-.51-51.28-.08-4.23-.18-8.47-.28-12.7-.05-1.93-3.05-1.93-3,0h0Z"/>
  </g>
</svg>