<?xml version="1.0" encoding="UTF-8"?>
<svg id="Layer_2" data-name="Layer 2" xmlns="http://www.w3.org/2000/svg" viewBox="0 0 134.5 49.65">
  <g id="Publications.Header">
    <g>
      <path d="M20.2,22.1v15.25c.2.03.39.08.57.12.18.05.38.11.58.18.27.1.4.33.4.7v1.8c0,.23-.05.4-.15.5s-.27.15-.5.15h-7.95c-.43,0-.65-.22-.65-.65v-1.85c0-.37.13-.6.4-.7.1-.03.24-.07.43-.1.18-.03.44-.07.77-.1v-15.2c0-.5-.08-.96-.25-1.38-.17-.42-.43-.76-.8-1.02-.37-.27-.87-.38-1.5-.35-.5,0-.94.1-1.33.3-.38.2-.7.43-.95.7-.25.27-.46.55-.62.85-.13.13-.22.27-.25.4-.03.13-.05.33-.05.6v15.1c.27.03.52.07.75.1s.43.08.6.15c.27.07.4.3.4.7v1.75c0,.2-.05.37-.15.5-.1.13-.28.2-.55.2H.75c-.5,0-.75-.23-.75-.7v-1.75c0-.37.17-.62.5-.75.23-.07.48-.13.75-.2.27-.07.6-.12,1-.15v-17.8c-.33-.07-.62-.12-.88-.17-.25-.05-.51-.11-.78-.18-.33-.13-.5-.43-.5-.9v-1.7c0-.4.22-.6.65-.6h6.25c.4,0,.65.15.75.45.07.2.12.45.17.75.05.3.08.7.08,1.2.53-.63,1.11-1.16,1.72-1.58.62-.42,1.3-.74,2.05-.97.75-.23,1.59-.35,2.53-.35,1.03,0,1.88.12,2.55.35.67.23,1.22.57,1.65,1,.43.43.78.97,1.05,1.6.8-1.03,1.73-1.78,2.8-2.25,1.07-.47,2.28-.7,3.65-.7,1.47,0,2.58.24,3.35.72.77.48,1.37,1.07,1.8,1.78.37.63.6,1.32.7,2.05.1.73.15,1.47.15,2.2v15.1c.3.07.59.13.88.2.28.07.52.13.72.2.3.1.45.32.45.65v1.85c0,.23-.05.4-.15.5s-.27.15-.5.15h-8.45c-.23,0-.41-.06-.53-.17-.12-.12-.17-.28-.17-.47v-1.85c0-.17.02-.3.08-.4.05-.1.14-.17.27-.2.07-.07.22-.12.45-.17.23-.05.52-.09.85-.12v-15.1c0-.5-.07-.97-.22-1.4s-.42-.78-.8-1.05c-.38-.27-.89-.4-1.53-.4-.5,0-.94.09-1.33.28-.38.18-.69.4-.92.65s-.43.49-.6.72c-.1.17-.17.31-.23.43-.05.12-.07.31-.07.57Z"/>
      <path d="M45.1,15.4c1.7,0,3.12.22,4.25.65,1.13.43,2.03,1.09,2.67,1.98.65.88,1.11,1.97,1.38,3.25s.4,2.79.4,4.52v2.65c0,.43-.08.73-.25.9-.17.17-.47.25-.9.25h-10.35v1c0,1.23.06,2.29.17,3.18.12.88.33,1.6.62,2.15s.72.95,1.25,1.2,1.2.38,2,.38c.73,0,1.37-.08,1.9-.25.53-.17,1.03-.4,1.5-.7.47-.3.95-.65,1.45-1.05.33-.27.62-.37.85-.3.23.07.43.23.6.5l.55,1.1c.17.33.25.63.25.9s-.17.55-.5.85c-.33.33-.81.73-1.43,1.17-.62.45-1.44.83-2.47,1.12-1.03.3-2.37.45-4,.45-1.5,0-2.82-.18-3.95-.55-1.13-.37-2.08-.97-2.83-1.8-.75-.83-1.32-1.92-1.7-3.27-.38-1.35-.58-3.01-.58-4.98v-4.75c0-1.6.17-3.05.52-4.35.35-1.3.88-2.41,1.6-3.32.72-.92,1.65-1.62,2.8-2.12s2.54-.75,4.17-.75ZM42.3,26.3h5.35v-1.3c0-1.6-.07-2.87-.2-3.8-.13-.93-.39-1.58-.78-1.95-.38-.37-.96-.55-1.72-.55-.53,0-.98.12-1.35.35-.37.23-.64.61-.83,1.12s-.31,1.16-.38,1.92c-.07.77-.1,1.72-.1,2.85v1.35Z"/>
      <path d="M66.8,5.35h7.35c.3,0,.51.06.62.18.12.12.17.34.17.67v30.2c0,.2.05.38.15.52s.25.27.45.38.48.17.85.2c.27,0,.43.06.5.17.07.12.1.31.1.58v1.45c0,.6-.2.97-.6,1.1-.17.03-.42.08-.75.12s-.82.08-1.45.08c-1.37,0-2.44-.19-3.22-.58s-1.31-1.04-1.58-1.98c-.4.67-.89,1.22-1.47,1.65-.58.43-1.23.74-1.95.93-.72.18-1.51.27-2.38.27-1.67,0-3.02-.38-4.05-1.15-1.03-.77-1.78-1.92-2.25-3.45-.47-1.53-.7-3.47-.7-5.8v-5.05c0-1.8.18-3.35.55-4.65.37-1.3.9-2.38,1.6-3.22.7-.85,1.57-1.49,2.62-1.92,1.05-.43,2.24-.65,3.57-.65.93,0,1.73.1,2.4.3.67.2,1.17.52,1.5.95v-7.7c-.43-.07-.83-.13-1.17-.2-.35-.07-.69-.15-1.03-.25-.23-.03-.39-.12-.47-.28-.08-.15-.12-.36-.12-.62v-1.55c0-.47.25-.7.75-.7ZM65.95,19.2c-.83,0-1.47.23-1.92.68-.45.45-.76,1.12-.92,2.03-.17.9-.25,2.08-.25,3.55v5.3c0,2.23.18,3.88.55,4.95.37,1.07,1.12,1.6,2.25,1.6.4,0,.74-.04,1.03-.12.28-.08.53-.21.75-.38.22-.17.41-.36.58-.58.17-.22.3-.46.4-.72.13-.23.24-.54.33-.93.08-.38.12-.88.12-1.47v-10c0-.4-.02-.8-.05-1.2-.03-.4-.13-.75-.3-1.05-.13-.3-.31-.57-.53-.82s-.49-.45-.83-.6-.73-.23-1.2-.23Z"/>
      <path d="M78.45,15.9h6.95c.27,0,.47.06.6.17.13.12.2.33.2.62v17.9c0,.87.22,1.54.65,2.03.43.48,1.03.72,1.8.72.63,0,1.17-.12,1.6-.35.43-.23.8-.63,1.1-1.2.17-.17.28-.39.35-.67.07-.28.1-.58.1-.88v-14.8c-.27-.07-.58-.13-.95-.2-.37-.07-.68-.13-.95-.2-.2-.07-.35-.16-.45-.27-.1-.12-.15-.31-.15-.58v-1.65c0-.43.25-.65.75-.65h7.05c.53,0,.8.28.8.85v19c0,.63.09,1.08.28,1.35.18.27.56.4,1.12.4.23.03.4.09.5.17s.15.24.15.48v1.85c0,.43-.15.72-.45.85-.2.07-.45.12-.75.15s-.8.05-1.5.05c-1.13,0-2.12-.18-2.98-.55-.85-.37-1.44-1.05-1.77-2.05-.8,1.07-1.71,1.81-2.73,2.23s-2.17.62-3.47.62c-1.37,0-2.51-.25-3.42-.75-.92-.5-1.62-1.17-2.12-2-.27-.5-.44-1.06-.53-1.67s-.12-1.26-.12-1.93v-15.5c-.37-.07-.69-.12-.97-.15-.28-.03-.56-.08-.83-.15-.23-.07-.38-.18-.42-.33-.05-.15-.08-.32-.08-.52v-1.75c0-.43.22-.65.65-.65Z"/>
      <path d="M115.15,15.4c1.23,0,2.28.22,3.12.67.85.45,1.53,1.12,2.05,2,.52.88.9,1.96,1.15,3.23s.38,2.72.38,4.35v4.65c0,2.13-.18,3.91-.55,5.33-.37,1.42-.88,2.54-1.55,3.38-.67.83-1.47,1.42-2.4,1.78-.93.35-1.97.52-3.1.52-1.2,0-2.18-.23-2.93-.67-.75-.45-1.32-.97-1.72-1.58v7.1c.3.03.66.07,1.08.12.42.05.79.11,1.12.17.23.07.39.15.47.25.08.1.12.3.12.6v1.6c0,.3-.06.5-.17.6-.12.1-.33.15-.62.15h-9.5c-.3,0-.52-.05-.65-.15s-.2-.3-.2-.6v-1.55c0-.3.04-.51.12-.62.08-.12.24-.21.47-.28.2-.07.42-.12.67-.17.25-.05.58-.09.98-.12v-26.7c-.23-.03-.48-.07-.75-.12-.27-.05-.53-.11-.8-.17-.4-.13-.6-.45-.6-.95v-1.55c0-.3.06-.5.17-.6.12-.1.29-.15.53-.15h6.25c.3,0,.5.07.6.2.1.13.17.3.2.5.07.27.12.53.15.8.03.27.07.53.1.8.73-.93,1.54-1.63,2.42-2.1.88-.47,2.01-.7,3.38-.7ZM112.75,19.45c-.57,0-1.03.12-1.4.35-.37.23-.65.51-.85.83-.2.32-.37.61-.5.88-.1.23-.19.55-.28.95-.08.4-.12.87-.12,1.4v9.25c0,.4.03.79.08,1.18s.12.72.22,1.02c.13.3.29.62.48.95.18.33.44.61.77.82.33.22.77.34,1.3.38.83,0,1.47-.24,1.9-.72.43-.48.75-1.27.95-2.35.2-1.08.3-2.51.3-4.28v-4.5c0-1.37-.08-2.49-.22-3.38-.15-.88-.43-1.57-.83-2.05-.4-.48-1-.73-1.8-.73Z"/>
      <path d="M124.9,15.9h6.8c.27,0,.46.06.58.17.12.12.17.33.17.62v20.6c.27.03.53.07.78.1s.49.08.72.15c.23.03.38.11.45.23.07.12.1.32.1.62v1.6c0,.27-.05.47-.15.6-.1.13-.3.2-.6.2h-8.9c-.23,0-.42-.06-.55-.17-.13-.12-.2-.31-.2-.58v-1.7c0-.2.04-.36.12-.47.08-.12.22-.21.42-.28.27-.1.53-.17.8-.22.27-.05.57-.09.9-.12v-17.8c-.27-.07-.52-.12-.75-.17-.23-.05-.47-.09-.7-.12-.27-.1-.45-.23-.55-.38-.1-.15-.15-.36-.15-.62v-1.5c0-.5.23-.75.7-.75Z"/>
      <path d="M126.89,1.32c1.07,1.37,1.99,2.86,2.75,4.42.72,1.47,1.45,3.15,1.73,4.77,0,.05.04.44.11.15.14-.09.11-.15-.08-.17-.1-.05-.2-.1-.3-.15-.29-.16-.58-.33-.85-.53-.54-.39-1.04-.89-1.42-1.45-.8-1.17-1.1-2.5-.95-3.9l-.55.72c-.1,0-.07.03.11.09.09.08.19.17.27.26.18.18.34.36.5.56.32.38.6.8.85,1.23.47.81.8,1.69,1,2.61.12.57.28,1.81-.62,1.77s-1.65-1.21-2.1-1.87c-.56-.82-1.01-1.72-1.3-2.67-.23-.74-.67-1.97-.27-2.72s1.52-.5,2.13-.29c.85.29,1.55.88,2.01,1.64l1.03-1.03c-1.45-1.04-2.56-2.51-3.18-4.18l-.92.92c1.96.42,2.99,2.22,3.59,3.99.3.91,1.75.52,1.45-.4-.75-2.25-2.15-4.5-4.63-5.04-.51-.11-1.13.35-.92.92.76,2.07,2.08,3.79,3.87,5.08.62.45,1.4-.42,1.03-1.03-1.03-1.69-3.14-2.94-5.16-2.47-2.52.59-1.97,3.56-1.33,5.37.39,1.09.92,2.12,1.61,3.05.64.86,1.41,1.82,2.49,2.12.98.28,2.07-.08,2.54-1.02s.31-1.98.07-2.92c-.31-1.21-.85-2.38-1.57-3.4s-1.58-2.23-2.92-2.05c-.35.05-.52.42-.55.72-.32,2.9,1.25,5.61,3.74,7.05.63.37,1.44.82,2.15.41.67-.39.68-1.22.53-1.88-.37-1.65-1.01-3.27-1.73-4.79-.84-1.78-1.9-3.44-3.11-4.99-.59-.76-1.65.31-1.06,1.06h0Z"/>
    </g>
  </g>
</svg>