<?xml version="1.0" encoding="UTF-8"?>
<svg id="Layer_2" data-name="Layer 2" xmlns="http://www.w3.org/2000/svg" viewBox="0 0 8.71 13.21">
  <g id="Publications">
    <g id="Publications.Header">
      <path d="M2.73,1.32c1.07,1.37,1.99,2.86,2.75,4.42.72,1.47,1.45,3.15,1.73,4.77,0,.05.04.44.11.15.14-.09.11-.15-.08-.17-.1-.05-.2-.1-.3-.15-.29-.16-.58-.33-.85-.53-.54-.39-1.04-.89-1.42-1.45-.8-1.17-1.1-2.5-.95-3.9l-.55.72c-.1,0-.07.03.11.09.09.08.19.17.27.26.18.18.34.36.5.56.32.38.6.8.85,1.23.47.81.8,1.69,1,2.61.12.57.28,1.81-.62,1.77s-1.65-1.21-2.1-1.87c-.56-.82-1.01-1.72-1.3-2.67-.23-.74-.67-1.97-.27-2.72s1.52-.5,2.13-.29c.85.29,1.55.88,2.01,1.64l1.03-1.03c-1.45-1.04-2.56-2.51-3.18-4.18l-.92.92c1.96.42,2.99,2.22,3.59,3.99.3.91,1.75.52,1.45-.4C6.94,2.86,5.54.6,3.06.07c-.51-.11-1.13.35-.92.92.76,2.07,2.08,3.79,3.87,5.08.62.45,1.4-.42,1.03-1.03-1.03-1.69-3.14-2.94-5.16-2.47C-.65,3.16-.1,6.13.54,7.94c.39,1.09.92,2.12,1.61,3.05.64.86,1.41,1.82,2.49,2.12.98.28,2.07-.08,2.54-1.02s.31-1.98.07-2.92c-.31-1.21-.85-2.38-1.57-3.4s-1.58-2.23-2.92-2.05c-.35.05-.52.42-.55.72-.32,2.9,1.25,5.61,3.74,7.05.63.37,1.44.82,2.15.41.67-.39.68-1.22.53-1.88-.37-1.65-1.01-3.27-1.73-4.79-.84-1.78-1.9-3.44-3.11-4.99-.59-.76-1.65.31-1.06,1.06h0Z"/>
    </g>
  </g>
</svg>