<?xml version="1.0" encoding="UTF-8"?>
<svg id="Layer_2" data-name="Layer 2" xmlns="http://www.w3.org/2000/svg" viewBox="0 0 38.52 35.5">
  <g id="Publications.Header">
    <g>
      <path d="M28.13,15.95c-4.03.22-8.07.25-12.1.09,2.74-1.44,5.48-2.87,8.22-4.31,1.71-.9.2-3.49-1.51-2.59-4.75,2.49-9.5,4.99-14.26,7.48-1.02.54-.93,2.03,0,2.59,4.83,2.91,10,5.25,15.39,6.94,1.85.58,2.64-2.32.8-2.89-3.62-1.14-7.12-2.59-10.48-4.31,4.64.25,9.3.26,13.95,0,1.92-.11,1.93-3.11,0-3Z"/>
      <path d="M37,8.6c-.28-.58-.76-.79-1.24-.76-1.06-3.77-5.73-5.56-9.1-6.61C22.71,0,17.96-.61,13.98.86c-3.72,1.38-6.45,4.29-8.94,7.26C2.58,11.06.43,14.1.06,18.03c-.63,6.73,3.75,13.49,9.9,16.08,7.05,2.97,15.34.93,21.11-3.78,6.22-5.08,9.6-14.21,5.93-21.73ZM30.82,26.46c-4.15,4.43-10.78,6.97-16.83,5.76-5.62-1.12-10.12-5.69-10.9-11.43-.39-2.85.38-5.49,1.97-7.85,1.83-2.72,4.21-5.56,6.83-7.55,3.33-2.53,7.39-2.73,11.37-1.93,2.06.41,4.08,1.07,5.96,1.99,1.52.75,3.29,1.64,3.71,3.42.18.78.79,1.1,1.41,1.07.02.06.03.11.06.17,2.68,5.48.37,12.13-3.59,16.35Z"/>
    </g>
  </g>
</svg>